<svg xmlns="http://www.w3.org/2000/svg" width="152.347" height="32" viewBox="0 0 152.347 32"><g transform="translate(-538)"><text transform="translate(577.347 22)" fill="#0d56d2" font-size="19" font-family="AvenirNext-Bold, Avenir Next" font-weight="700"><tspan x="0" y="0">ACME</tspan><tspan y="0" fill="#707070"> </tspan><tspan y="0" fill="#575756">Learn</tspan></text><g transform="translate(-113)"><path d="M5.918,0A1.292,1.292,0,0,0,4.755.735C3.862.9,2,1.413,2,2.857,2,3.663,3.827,15.643,8.551,18.51c0,.054-.02.107-.02.163,0,1.477.992,4.184,2.612,4.184s2.612-2.707,2.612-4.184c0-.056-.018-.11-.02-.163,4.724-2.867,6.551-14.847,6.551-15.653,0-1.444-1.862-1.954-2.755-2.122A1.292,1.292,0,0,0,16.367,0a1.306,1.306,0,1,0,0,2.612,1.293,1.293,0,0,0,1.061-.551c.783.184,1.551.515,1.551.8,0,1.168-2.013,11.941-5.8,14.449a1.98,1.98,0,0,0-1.2-.327c-.128,0-.268-.005-.408,0-.276.01-.582.01-.857,0-.14-.005-.281,0-.408,0a1.976,1.976,0,0,0-1.2.327C5.319,14.8,3.306,4.026,3.306,2.857c0-.265.714-.6,1.551-.8a1.3,1.3,0,0,0,2.367-.755A1.305,1.305,0,0,0,5.918,0Z" transform="translate(649)" fill="#6e6654"/><path d="M15.686,30.837ZM33.318,23a4.571,4.571,0,1,0,4.571,4.571A4.577,4.577,0,0,0,33.318,23Zm0,2.612a1.959,1.959,0,1,1-1.959,1.959A1.963,1.963,0,0,1,33.318,25.612Zm-16.9,6.429a2.662,2.662,0,0,1-.735.1,2.806,2.806,0,0,1-.592-.061c.278,3.2,1.768,7.9,9.735,7.9,6.454,0,8.362-4.015,8.918-6.551-.138.01-.286.02-.429.02a5.813,5.813,0,0,1-.878-.082c-.528,2.184-2.232,5.306-7.612,5.306C18.451,38.673,16.775,35.561,16.42,32.041Z" transform="translate(644.457 -7.98)" fill="#0d56d2"/></g></g></svg>