<svg xmlns="http://www.w3.org/2000/svg" width="49.056" height="49" viewBox="0 0 49.056 49"><path d="M21.2,0a.965.965,0,0,0-.964.964c0,7.758.956,12.994,2.891,15.87.493-4.528,1.961-7.656,4.547-9.516A59.9,59.9,0,0,1,27.463.964.963.963,0,0,0,26.5,0ZM35.654,7.137c-7.664,0-10.78,3.888-10.78,13.4v.271c.151,7.551-1.7,10.588-2.8,11.714a4.238,4.238,0,0,1-3.192,1.295,14.382,14.382,0,0,1-5.511-.9A12.192,12.192,0,0,0,8.853,32.1c-2.541,0-4.412,1.28-6.113,4.216A52.807,52.807,0,0,0,.06,42.76a.968.968,0,0,0,.03.753,5.071,5.071,0,0,0,4.637,2.469,8.046,8.046,0,0,0,1.415-.12.969.969,0,0,0,.753-.693c.023-.083.053-.2.09-.361.847-3.478,1.641-3.764,1.867-3.764,1.412,0,2.119,0,4.065,1.867C15.907,45.689,18.9,48,24.964,48c11.183,0,19.927-7.415,22.314-18.881,1.972-9.267-.339-14.639-2.65-17.5A11.778,11.778,0,0,0,35.654,7.137Z" transform="translate(0.507 0.5)" fill="none" stroke="#0056d2" stroke-width="1"/></svg>