<svg xmlns="http://www.w3.org/2000/svg" width="51.001" height="47" viewBox="0 0 51.001 47"><path d="M23.531,0a1,1,0,0,0-.969.781A.525.525,0,0,0,22.5,1V3h5.063V1a1,1,0,0,0-1-1ZM22.5,5V7h5.063V5Zm0,4v2h5.063V9Zm-5.781,2a4.07,4.07,0,0,0-1.875.594C11.973,13.324,0,27.387,0,37.688v1C-.016,41.578-.012,43.5,1.313,44.75c.93.879,2.34,1.25,4.875,1.25.7,0,1.465-.039,2.344-.094l2.625-.156A11.638,11.638,0,0,0,21.969,34.375S22,30.824,22,28.094A16.346,16.346,0,0,1,18.344,29.5L16.75,31.906a1,1,0,0,1,.094.375L17,36.094a1.05,1.05,0,0,1-.031.313l-1.062,2.875a.882.882,0,0,1-1,.688.749.749,0,0,1-.531-1.062L15,36.031l-.062-1.406-1.5,2.281a1.037,1.037,0,0,1-.531.406l-2.531.813-1.75,3.156a.847.847,0,0,1-1.094.375.862.862,0,0,1-.344-1.062l1.594-3.75a1,1,0,0,1,.594-.5l2.594-.844,1.625-2.469-2.406-.125L7.5,34.406a.9.9,0,0,1-1.25-.312c-.234-.5,0-.8.5-1.031L10.563,31a.98.98,0,0,1,.469-.094l3.844.188,1.438-2.187-1.375-.812L10.719,28,7.75,29.563c-.648.336-1.062.125-1.25-.187-.285-.473-.1-.84.375-1.125l3.063-2.125A.939.939,0,0,1,10.469,26l3.063.063-.781-1.5a.979.979,0,0,1-.094-.656l.906-3.594c.105-.539.422-1.012.969-.906s.668.551.563,1.094l-.406,3.438,1.281,2.438,1.469.875c.387-.465.785-.9,1.188-1.312a10.033,10.033,0,0,0,2.969-4.656c-.039-1.641-.062-3.25-.094-3.781-.156-2.906-1.258-5.187-2.969-6.094A3.465,3.465,0,0,0,16.719,11ZM22,28.094s2.242-2.512,3.031-3.687A18.09,18.09,0,0,0,28,28.094l.313-5.156c.035-.613.043-1.293.063-1.969a12.421,12.421,0,0,1-.969-4.469l.094-3.25a1.066,1.066,0,0,0,.063-.25H22.5v.031l.219,3.469a12.574,12.574,0,0,1-1.094,4.594c.02.637.063,1.258.094,1.844Zm6,0c0,2.73.031,6.281.031,6.281A11.638,11.638,0,0,0,38.844,45.75l2.625.156c.879.055,1.648.094,2.344.094,2.535,0,3.945-.371,4.875-1.25C50.012,43.5,50.016,41.578,50,38.688v-1c0-10.3-11.973-24.363-14.844-26.094a3.6,3.6,0,0,0-3.656-.187c-1.711.906-2.844,3.188-3,6.094-.031.531-.055,2.141-.094,3.781a10.033,10.033,0,0,0,2.969,4.656c.4.41.8.848,1.188,1.313l1.469-.875,1.313-2.437L34.906,20.5c-.105-.543.02-.988.563-1.094s.863.367.969.906l.938,3.594a1,1,0,0,1-.125.656l-.781,1.5L39.531,26a.939.939,0,0,1,.531.125l3.063,2.125c.473.285.66.652.375,1.125-.187.313-.57.523-1.219.188l-3-1.562-4.219.094-1.375.813,1.438,2.188,3.844-.187a.98.98,0,0,1,.469.094l3.813,2.063c.5.23.734.531.5,1.031a.862.862,0,0,1-1.219.313l-3.719-1.5-2.406.125L38.031,35.5l2.594.844a1.046,1.046,0,0,1,.594.531l1.594,3.719a.862.862,0,0,1-.344,1.063.847.847,0,0,1-1.094-.375l-1.75-3.156-2.531-.812a1.037,1.037,0,0,1-.531-.406l-1.5-2.281L35,36.031l.625,2.875a.749.749,0,0,1-.531,1.063.882.882,0,0,1-1-.687l-1.062-2.875A1.05,1.05,0,0,1,33,36.094l.156-3.812a1,1,0,0,1,.094-.375L31.656,29.5A16.346,16.346,0,0,1,28,28.094Z" transform="translate(0.5 0.5)" fill="none" stroke="#0056d2" stroke-width="1"/></svg>