<svg xmlns="http://www.w3.org/2000/svg" xmlns:xlink="http://www.w3.org/1999/xlink" width="64" height="64" viewBox="0 0 64 64"><defs><linearGradient id="a" x1="0.487" y1="1.247" x2="1.118" y2="1.698" gradientUnits="objectBoundingBox"><stop offset="0" stop-color="#0b71d9"/><stop offset="0.628" stop-color="#264774"/></linearGradient><linearGradient id="b" x1="0.988" y1="0.426" x2="1.847" y2="0.156" gradientUnits="objectBoundingBox"><stop offset="0" stop-color="#0b71d9"/><stop offset="1" stop-color="#264774"/></linearGradient><radialGradient id="c" cx="0.615" cy="0.634" r="0.575" gradientTransform="matrix(0.68, 0.733, -2.625, 2.437, 1.453, -1.063)" gradientUnits="objectBoundingBox"><stop offset="0.17" stop-color="#999"/><stop offset="0.481" stop-color="#eee"/><stop offset="0.707" stop-color="#ececec"/><stop offset="0.788" stop-color="#e5e5e5"/><stop offset="0.846" stop-color="#dadada"/><stop offset="0.893" stop-color="#c9c9c9"/><stop offset="0.933" stop-color="#b3b3b3"/><stop offset="0.968" stop-color="#989898"/><stop offset="0.999" stop-color="#797979"/><stop offset="1" stop-color="#787878"/></radialGradient><linearGradient id="d" x1="0.83" y1="0.979" x2="1.734" y2="0.986" xlink:href="#b"/><linearGradient id="e" x1="1.448" y1="0.728" x2="1.442" y2="1.662" gradientUnits="objectBoundingBox"><stop offset="0" stop-color="#ff7900"/><stop offset="1" stop-color="#e51e25"/></linearGradient><radialGradient id="f" cx="0.853" cy="0.156" r="0.932" gradientTransform="matrix(0.707, 0.707, -0.854, 0.854, 0.987, -0.972)" gradientUnits="objectBoundingBox"><stop offset="0" stop-color="#fff"/><stop offset="0.254" stop-color="#ffda4e"/><stop offset="0.699" stop-color="#ff7900"/><stop offset="0.975" stop-color="#e51f25"/></radialGradient><linearGradient id="g" x1="2.363" y1="-0.194" x2="2.169" y2="2.47" gradientUnits="objectBoundingBox"><stop offset="0" stop-color="#fff"/><stop offset="0.404" stop-color="#ffda4e"/><stop offset="0.699" stop-color="#ff7900"/><stop offset="0.975" stop-color="#e51f25"/></linearGradient><linearGradient id="h" x1="2.736" y1="0.11" x2="2.572" y2="2.468" gradientUnits="objectBoundingBox"><stop offset="0" stop-color="#fff"/><stop offset="0.254" stop-color="#ffda4e"/><stop offset="0.594" stop-color="#ff7900"/><stop offset="0.975" stop-color="#e51f25"/></linearGradient><linearGradient id="i" x1="3.517" y1="1.063" x2="3.327" y2="3.604" gradientUnits="objectBoundingBox"><stop offset="0" stop-color="#fff"/><stop offset="0.28" stop-color="#ffda4e"/><stop offset="0.834" stop-color="#ff7900"/><stop offset="0.943" stop-color="#e51f25"/></linearGradient><linearGradient id="j" x1="4.794" y1="0.326" x2="4.629" y2="3.388" gradientUnits="objectBoundingBox"><stop offset="0" stop-color="#fff"/><stop offset="0.28" stop-color="#ffda4e"/><stop offset="0.536" stop-color="#ff7900"/><stop offset="0.943" stop-color="#e51f25"/></linearGradient><linearGradient id="k" x1="6.787" y1="1.399" x2="6.615" y2="4.262" gradientUnits="objectBoundingBox"><stop offset="0" stop-color="#fff"/><stop offset="0.28" stop-color="#ffda4e"/><stop offset="0.491" stop-color="#ff7900"/><stop offset="0.943" stop-color="#e51f25"/></linearGradient><linearGradient id="l" x1="5.052" y1="0.611" x2="4.849" y2="3.006" gradientUnits="objectBoundingBox"><stop offset="0" stop-color="#fff"/><stop offset="0.37" stop-color="#ffda4e"/><stop offset="0.834" stop-color="#ff7900"/><stop offset="0.943" stop-color="#e51f25"/></linearGradient><linearGradient id="m" x1="3.138" y1="0.676" x2="2.983" y2="2.963" gradientUnits="objectBoundingBox"><stop offset="0" stop-color="#fff"/><stop offset="0.254" stop-color="#ffda4e"/><stop offset="0.602" stop-color="#ff7900"/><stop offset="0.975" stop-color="#e51f25"/></linearGradient><linearGradient id="n" x1="0.833" y1="0.898" x2="0.962" y2="0.898" gradientUnits="objectBoundingBox"><stop offset="0" stop-color="#264774"/><stop offset="1" stop-color="#264774"/></linearGradient><linearGradient id="o" x1="-1.381" y1="-0.23" x2="-0.602" y2="-0.23" gradientUnits="objectBoundingBox"><stop offset="0" stop-color="#f68381"/><stop offset="0.547" stop-color="#e62228"/><stop offset="0.903" stop-color="#8e2809"/></linearGradient><linearGradient id="p" x1="-1.409" y1="0.159" x2="-0.015" y2="0.159" gradientUnits="objectBoundingBox"><stop offset="0" stop-color="#fff" stop-opacity="0.8"/><stop offset="1" stop-color="#fff" stop-opacity="0"/></linearGradient><linearGradient id="q" x1="-1.451" y1="0.145" x2="-0.058" y2="0.145" gradientUnits="objectBoundingBox"><stop offset="0.293" stop-color="#cbcbcb"/><stop offset="1" stop-color="#666"/></linearGradient><linearGradient id="r" x1="-0.508" y1="0.553" x2="0.876" y2="0.553" xlink:href="#p"/><linearGradient id="s" x1="-0.529" y1="0.543" x2="0.855" y2="0.543" xlink:href="#q"/><radialGradient id="t" cx="0.503" cy="0.497" r="0.477" gradientTransform="matrix(0.707, 0.707, -0.707, 0.707, 0.209, 0.163)" gradientUnits="objectBoundingBox"><stop offset="0" stop-opacity="0.8"/><stop offset="0.384" stop-color="#020202" stop-opacity="0.49"/><stop offset="0.53" stop-color="#090909" stop-opacity="0.373"/><stop offset="0.636" stop-color="#151515" stop-opacity="0.286"/><stop offset="0.722" stop-color="#262626" stop-opacity="0.22"/><stop offset="0.797" stop-color="#3c3c3c" stop-opacity="0.157"/><stop offset="0.863" stop-color="#585858" stop-opacity="0.106"/><stop offset="0.923" stop-color="#797979" stop-opacity="0.059"/><stop offset="0.976" stop-color="#9e9e9e" stop-opacity="0.016"/><stop offset="0.993" stop-color="#ababab" stop-opacity="0"/></radialGradient><linearGradient id="u" x1="-0.646" y1="0.366" x2="0.314" y2="0.366" gradientUnits="objectBoundingBox"><stop offset="0" stop-color="#e7e7e7"/><stop offset="1" stop-color="#999"/></linearGradient><linearGradient id="v" x1="0.148" y1="0.33" x2="-0.813" y2="0.34" gradientUnits="objectBoundingBox"><stop offset="0" stop-color="#c8c8c8"/><stop offset="1" stop-color="#aaa"/></linearGradient><linearGradient id="w" x1="-0.973" y1="0.317" x2="0.027" y2="0.317" gradientUnits="objectBoundingBox"><stop offset="0" stop-color="#78d9f4"/><stop offset="0.846" stop-color="#0b71d9"/></linearGradient><radialGradient id="x" cx="0.251" cy="0.33" r="1.444" gradientTransform="matrix(0.697, -0.707, 0.133, 0.135, 1.301, -2.394)" gradientUnits="objectBoundingBox"><stop offset="0" stop-color="#fff" stop-opacity="0.502"/><stop offset="0.141" stop-color="#fff" stop-opacity="0.427"/><stop offset="0.999" stop-color="#fff" stop-opacity="0"/></radialGradient><linearGradient id="y" x1="-0.899" y1="-3.47" x2="1.783" y2="3.749" gradientUnits="objectBoundingBox"><stop offset="0" stop-color="#fff" stop-opacity="0.8"/><stop offset="0.794" stop-color="#fff" stop-opacity="0"/></linearGradient></defs><g transform="translate(-6.906 -6.745)"><path d="M31.425,19.662a13.419,13.419,0,0,1-9.22-1.317A62.885,62.885,0,0,0,7.77,30.257L22.2,36.787Z" transform="translate(0.746 10.012)" fill="url(#a)"/><path d="M36.885,27.536a13.419,13.419,0,0,0,1.317,9.22A62.885,62.885,0,0,1,26.29,51.191L19.76,36.758Z" transform="translate(11.094 17.944)" fill="url(#b)"/><path d="M64.9,8.677A1.786,1.786,0,0,0,63.324,7.1c-9.032-1.023-21.2-.429-28.73,9.563L13.452,45.586l6.482,6.482,6.482,6.482,28.92-21.14C65.327,29.881,65.921,17.711,64.9,8.677Z" transform="translate(5.649)" fill="url(#c)"/><path d="M25.156,42.735,11.982,29.561l3.952-1.317L26.473,38.781Z" transform="translate(4.381 18.555)" fill="url(#d)"/><path d="M26.194,37.225l-3.24-3.24-3.24-3.24s-7.251-.02-10.677,6.135c1.783.091,1.427,1.422-.4,2.986a5.736,5.736,0,0,0-1.733,4.129c1.774-.516,1.328,2.945.177,5.859,2.914-1.151,6.377-1.6,5.859.177a5.732,5.732,0,0,0,4.123-1.738c1.565-1.824,2.9-2.176,2.992-.391C26.215,44.476,26.194,37.225,26.194,37.225Z" transform="translate(0 20.713)" fill="url(#e)"/><path d="M25.416,36.5l-2.742-2.742-2.742-2.742a16.933,16.933,0,0,0-9.7,5.535c.963.589.68,2.085-.052,2.973-.591.715-2.29,1.8-2.951,3.883,1.431-.281,1.971,1.6.682,5.114,3.517-1.289,5.4-.749,5.114.682,2.085-.661,3.167-2.36,3.883-2.951.889-.734,2.387-1.015,2.973-.052A16.936,16.936,0,0,0,25.416,36.5Z" transform="translate(0.28 20.944)" fill="url(#f)"/><path d="M19.543,33.571c-3.19,4.233-7.4,3.987-11.1,11.128C12.925,39.482,17.732,39.734,19.543,33.571Z" transform="translate(1.325 23.152)" fill="url(#g)"/><path d="M10.87,44.069c2.724-6.148,6.06-4.386,9.332-8.9C18.127,41.47,14.4,40.915,10.87,44.069Z" transform="translate(3.421 24.535)" fill="url(#h)"/><path d="M11,38.443c1.546-3.978,3.8-3.087,5.79-5.951C15.681,36.593,13.218,36.49,11,38.443Z" transform="translate(3.531 22.221)" fill="url(#i)"/><path d="M8.28,42.2c1.932-3.2,3.6-2.04,5.7-4.2C12.382,41.391,10.409,40.877,8.28,42.2Z" transform="translate(1.186 26.977)" fill="url(#j)"/><path d="M7.683,40.312c3.212-.736,2.556-2.77,4.89-4.037C9.272,36.622,9.295,38.717,7.683,40.312Z" transform="translate(0.671 25.486)" fill="url(#k)"/><path d="M13.483,39.3c3.6-1.811,2.523-3.765,5.023-5.859C14.744,34.87,15.1,37.091,13.483,39.3Z" transform="translate(5.676 23.042)" fill="url(#l)"/><path d="M8.134,41.039c6.1-2.694,5.239-5.882,9.8-9.092C11.737,34.017,11.411,37.59,8.134,41.039Z" transform="translate(1.06 21.751)" fill="url(#m)"/><path d="M16.147,39.792l-1.319-1.317L28,25.3l1.317,1.317Z" transform="translate(6.837 16.015)" fill="url(#n)"/><rect width="1.863" height="4.371" transform="matrix(0.707, 0.707, -0.707, 0.707, 37.93, 38.224)" fill="#288bd7"/><path d="M48.288,24.878A41.343,41.343,0,0,0,49.3,8.675,1.786,1.786,0,0,0,47.727,7.1a41.345,41.345,0,0,0-16.2,1.013Z" transform="translate(21.246 0.002)" fill="url(#o)"/><path d="M48.892,27.083,29.975,8.166c-.211.1-.423.181-.63.283L48.611,27.715C48.711,27.506,48.8,27.294,48.892,27.083Z" transform="translate(19.366 1.227)" fill="url(#p)"/><path d="M48.884,26.617,30.291,8.024c-.212.089-.421.186-.63.283L48.6,27.247C48.7,27.038,48.794,26.83,48.884,26.617Z" transform="translate(19.639 1.104)" fill="url(#q)"/><path d="M38.145,35.879,20.484,18.219l-.386.527,17.52,17.518Z" transform="translate(11.385 9.903)" fill="url(#r)"/><path d="M38.471,35.748,20.677,17.954l-.386.527L37.943,36.134Z" transform="translate(11.552 9.674)" fill="url(#s)"/><circle cx="11.493" cy="11.493" r="11.493" transform="translate(38.567 18.44)" fill="url(#t)"/><circle cx="10.163" cy="10.163" r="10.163" transform="translate(39.133 18.192)" fill="url(#u)"/><circle cx="8.304" cy="8.304" r="8.304" transform="translate(40.992 20.051)" fill="url(#v)"/><circle cx="7.452" cy="7.452" r="7.452" transform="translate(41.844 20.903)" fill="url(#w)"/><path d="M34.241,15.039c.442.442-2.612,1-4.762,3.15s-2.582,5.077-3.024,4.635-1.2-3.544,1.483-6.224C30.327,14.212,33.8,14.6,34.241,15.039Z" transform="translate(16.487 6.873)" fill="url(#x)"/><path d="M34.83,11.3a40.426,40.426,0,0,1,10.945-3.13,28.049,28.049,0,0,0-13.557.52Z" transform="translate(21.845 0.724)" fill="url(#y)"/></g></svg>