<svg xmlns="http://www.w3.org/2000/svg" width="49.045" height="49.004" viewBox="0 0 49.045 49.004"><path d="M4.227,0A3.816,3.816,0,0,0,0,3.477,49.445,49.445,0,0,1,7.465,13.551a9.24,9.24,0,0,1,5.186-1.559,14.055,14.055,0,0,1,1.709.12,30.378,30.378,0,0,0-2.218-3.3,29.394,29.394,0,0,1,4.887-4.707A4.426,4.426,0,0,0,13.731.06c-1.491.319-3.62,2.552-5.216,4.257A32.807,32.807,0,0,0,4.887.06,5.219,5.219,0,0,0,4.227,0Zm27.1,0c-2.706.2-4.707,3.508-4.707,3.508A9.255,9.255,0,0,1,28.81,5.516a24.712,24.712,0,0,0-2.428,4.167,25.441,25.441,0,0,1,6.086.779c.453-.821.869-1.439.869-1.439a12.71,12.71,0,0,1,1.709,2.248A20.119,20.119,0,0,1,42.99,17c.461.536.884,1.1,1.289,1.679C41.814,6.929,34.09,1.158,31.328,0ZM43.05,0a26.028,26.028,0,0,0-4.287,3.448,29.384,29.384,0,0,1,3.568,4.827A48,48,0,0,1,47.967,3.6C47.465.588,44.954,0,43.05,0ZM26.082,11.6a11.475,11.475,0,0,0-7.915,3.448,15.685,15.685,0,0,0-5.516-1.139c-5.261,0-8.941,5.216-9.084,12.711.289,12.9,11.223,16.728,16.668,17.838A29.082,29.082,0,0,1,14.3,24.283a.964.964,0,0,1,1.919.18c-.922,9.481,4.013,18.523,8.124,21.2A19.858,19.858,0,0,0,34.236,48a27.726,27.726,0,0,0,11.482-2.428,3.393,3.393,0,0,0,1.949-2.638A33.074,33.074,0,0,0,48,38.223c-.12-6.378-1.773-14.51-6.476-20C37.748,13.824,32.554,11.6,26.082,11.6Z" transform="translate(0.531 0.508)" fill="none" stroke="#0056d2" stroke-width="1"/></svg>