<svg xmlns="http://www.w3.org/2000/svg" width="12" height="7.636" viewBox="0 0 12 7.636"><path d="M7,5A1.636,1.636,0,1,0,8.636,6.636,1.645,1.645,0,0,0,7,5ZM3.182,6.091A1.091,1.091,0,1,0,4.273,7.182,1.091,1.091,0,0,0,3.182,6.091Zm7.636,0a1.091,1.091,0,1,0,1.091,1.091A1.091,1.091,0,0,0,10.818,6.091ZM3.182,9.364C1.99,9.364,1,9.859,1,10.573v.973H2.636v-.427a2.313,2.313,0,0,1,.8-1.742C3.349,9.372,3.267,9.364,3.182,9.364ZM7,9.364c-1.927,0-3.273.722-3.273,1.755v1.518h6.545V11.118C10.273,10.085,8.927,9.364,7,9.364Zm3.818,0c-.086,0-.167.008-.25.013a2.314,2.314,0,0,1,.8,1.742v.427H13v-.973C13,9.859,12.01,9.364,10.818,9.364Z" transform="translate(-1 -5)" fill="#575756"/></svg>