<svg xmlns="http://www.w3.org/2000/svg" xmlns:xlink="http://www.w3.org/1999/xlink" width="10.8" height="12" viewBox="0 0 10.8 12"><defs><clipPath id="a"><path d="M3.9.7V1.9H3.3A1.2,1.2,0,0,0,2.1,3.1v8.4a1.2,1.2,0,0,0,1.2,1.2h8.4a1.2,1.2,0,0,0,1.2-1.2V3.1a1.2,1.2,0,0,0-1.2-1.2h-.6V.7H9.9V1.9H5.1V.7ZM3.3,4.9h8.4v6.6H3.3Zm4.8,3v2.4h2.4V7.9Z" transform="translate(-2.1 -0.7)" fill="#575756"/></clipPath></defs><g clip-path="url(#a)"><path d="M3.9.7V1.9H3.3A1.2,1.2,0,0,0,2.1,3.1v8.4a1.2,1.2,0,0,0,1.2,1.2h8.4a1.2,1.2,0,0,0,1.2-1.2V3.1a1.2,1.2,0,0,0-1.2-1.2h-.6V.7H9.9V1.9H5.1V.7ZM3.3,4.9h8.4v6.6H3.3Zm4.8,3v2.4h2.4V7.9Z" transform="translate(-2.1 -0.7)" fill="#575756"/></g></svg>