<svg xmlns="http://www.w3.org/2000/svg" width="45.209" height="49" viewBox="0 0 45.209 49"><path d="M20.24,0C14.345,0,10.978,3.3,9.92,5.85a9.649,9.649,0,0,0-6.54,4.89c-1.789,3.274-1.811,7.369-.18,11.73a14.45,14.45,0,0,1,6.09-1.35,14.322,14.322,0,0,1,7.65,2.1.949.949,0,0,1-1.08,1.56A12.869,12.869,0,0,0,3.2,24.63a7.729,7.729,0,0,0-.87,5.76,7.076,7.076,0,0,0,4.08,4.68,5.884,5.884,0,0,0,.18,5.4,7.816,7.816,0,0,0,6.21,3.66C14.21,48,18.4,48,20.24,48a4.791,4.791,0,0,0,2.88-.93V.75A4.942,4.942,0,0,0,20.24,0Zm7.68,0a4.942,4.942,0,0,0-2.88.75V47.04a4.862,4.862,0,0,0,2.88.96h.03a8.31,8.31,0,0,0,6.78-3.57,9.931,9.931,0,0,1-5.85-8.91.96.96,0,1,1,1.92,0c0,4.9,4.091,6.982,5.64,7.59,2.467-.3,4.275-1.249,5.19-2.73.874-1.414.9-3.18.06-5.28a7.224,7.224,0,0,0,4.26-4.92,7.4,7.4,0,0,0-.69-5.07c-1.8,1.74-5.047,3.69-10.62,3.69a.96.96,0,0,1,0-1.92c6.416,0,9.251-2.854,10.29-4.32,1.661-4.391,1.65-8.527-.15-11.82a9.649,9.649,0,0,0-6.54-4.89C37.183,3.3,33.815,0,27.92,0Zm-9.6,9.6a.959.959,0,0,1,.96.96c0,1.335-1.211,4.8-6.72,4.8a.96.96,0,0,1,0-1.92c3.915,0,4.8-2.134,4.8-2.88A.959.959,0,0,1,18.32,9.6Zm13.44,1.92a.959.959,0,0,1,.96.96c0,1.568,1.642,4.8,6.72,4.8a.96.96,0,0,1,0,1.92c-6.529,0-8.64-4.526-8.64-6.72A.959.959,0,0,1,31.76,11.52ZM10.79,28.8c4.174.694,6.57,3.855,6.57,8.64a.96.96,0,1,1-1.92,0c0-2.2-.66-6-4.98-6.72a.956.956,0,0,1-.78-1.11A.97.97,0,0,1,10.79,28.8Z" transform="translate(-1.477 0.5)" fill="none" stroke="#0056d2" stroke-width="1"/></svg>